<svg width="220" height="94" viewBox="0 0 220 94" fill="none" xmlns="http://www.w3.org/2000/svg">
<g clip-path="url(#clip0_23_31890)">
<path d="M73.0481 34.25H62.6816V59.0417L73.0481 34.25Z" fill="#4C4C4D"/>
<path d="M80.3418 34.25H90.6947V59.0417L80.3418 34.25Z" fill="#4C4C4D"/>
<path d="M76.6946 43.3875L83.2927 59.0419H78.9637L76.9918 54.0579H72.1631L76.6946 43.3875Z" fill="#4C4C4D"/>
<path d="M107.608 50.0147L108.83 53.5197C108.871 53.6074 108.931 53.648 109.039 53.648H111.39C111.518 53.648 111.538 53.5872 111.518 53.4589L106.662 39.9724C106.642 39.8643 106.622 39.8441 106.514 39.8441H103.596C103.515 39.8441 103.468 39.9048 103.468 39.9926C103.427 40.7017 103.367 40.9178 103.279 41.1272L98.9498 53.4386C98.9296 53.5872 98.9769 53.648 99.0984 53.648H101.199C101.327 53.648 101.388 53.6074 101.435 53.4791L102.59 50.0147H107.608ZM103.259 47.7253C103.893 45.8073 104.731 43.3491 105.068 41.9444H105.089C105.507 43.4166 106.493 46.3341 106.939 47.7253H103.259Z" fill="#4C4C4D"/>
<path d="M117.76 53.8567C119.023 53.8567 120.367 53.6271 121.731 53.0395C121.84 52.999 121.86 52.9517 121.86 52.8504C121.819 52.4723 121.772 51.9252 121.772 51.5065V38.8102C121.772 38.7291 121.772 38.6886 121.671 38.6886H119.381C119.293 38.6886 119.253 38.7291 119.253 38.8372V43.1391C118.895 43.0986 118.645 43.0783 118.348 43.0783C114.654 43.0783 112.385 45.5163 112.385 48.562C112.385 52.0941 114.715 53.8567 117.76 53.8567ZM119.253 51.5065C118.875 51.6281 118.456 51.6754 118.031 51.6754C116.356 51.6754 114.985 50.7299 114.985 48.4337C114.985 46.401 116.396 45.1989 118.267 45.1989C118.645 45.1989 118.976 45.2394 119.253 45.3474V51.5065Z" fill="#4C4C4D"/>
<path d="M129.161 43.0793C126.007 43.0793 124.056 45.4971 124.056 48.4821C124.056 51.1496 125.609 53.8577 129.114 53.8577C132.079 53.8577 134.159 51.6764 134.159 48.4145C134.159 45.5376 132.396 43.0793 129.161 43.0793ZM129.033 45.1999C130.816 45.1999 131.572 46.7329 131.572 48.4821C131.572 50.6431 130.458 51.7169 129.161 51.7169C127.561 51.7169 126.615 50.373 126.615 48.4348C126.615 46.4425 127.621 45.1999 129.033 45.1999Z" fill="#4C4C4D"/>
<path d="M136.527 38.6886C136.439 38.6886 136.378 38.7291 136.378 38.8372V53.2084C136.378 53.2692 136.439 53.3772 136.527 53.3975C137.533 53.7081 138.586 53.8567 139.674 53.8567C142.787 53.8567 145.812 51.9252 145.812 48.0353C145.812 45.2191 143.881 43.0783 140.855 43.0783C140.16 43.0783 139.511 43.1864 138.944 43.3754L138.917 38.8574C138.917 38.7089 138.877 38.6886 138.728 38.6886H136.527ZM143.226 48.2919C143.226 50.6218 141.632 51.7159 139.91 51.7159C139.552 51.7159 139.235 51.6956 138.944 51.6078V45.4757C139.275 45.3474 139.674 45.2394 140.41 45.2394C142.071 45.2394 143.226 46.2929 143.226 48.2919Z" fill="#4C4C4D"/>
<path d="M154.357 49.0493C155.383 49.0493 156.228 49.0291 156.518 48.9615C156.626 48.9413 156.667 48.9008 156.687 48.813C156.748 48.5834 156.775 48.1039 156.775 47.5163C156.775 45.5173 155.573 43.0793 152.466 43.0793C149.292 43.0793 147.529 45.6659 147.529 48.5834C147.529 51.1699 148.893 53.8577 152.716 53.8577C154.148 53.8577 155.073 53.6281 155.87 53.2499C155.951 53.2094 155.991 53.1419 155.991 53.0203V51.2712C155.991 51.1699 155.93 51.1496 155.87 51.1902C155.073 51.5278 154.208 51.6967 153.263 51.6967C151.122 51.6967 150.15 50.5148 150.089 49.0493H154.357ZM150.089 47.2394C150.258 46.2129 150.906 45.0986 152.358 45.0986C153.959 45.0986 154.377 46.4425 154.377 47.0503C154.377 47.0706 154.377 47.1584 154.377 47.2192C154.289 47.2394 154.019 47.2394 153.222 47.2394H150.089Z" fill="#4C4C4D"/>
</g>
<defs>
<clipPath id="clip0_23_31890">
<rect width="94.2083" height="34" fill="white" transform="translate(62.6816 30)"/>
</clipPath>
</defs>
</svg>
