<svg width="220" height="94" viewBox="0 0 220 94" fill="none" xmlns="http://www.w3.org/2000/svg">
<g clip-path="url(#clip0_23_31929)">
<path d="M81.8567 56.9618C80.6739 57.1695 79.4702 57.2318 78.2251 57.3977L74.4274 46.2747V57.875C73.2446 57.9995 72.1655 58.1655 71.0449 58.3315V37.0815H74.1993L78.5156 49.1386V37.0815H81.8567V56.9618ZM88.3936 44.8635C89.6803 44.8635 91.6517 44.8013 92.8345 44.8013V48.1215C91.361 48.1215 89.6387 48.1215 88.3936 48.1838V53.1228C90.3443 52.9983 92.295 52.8322 94.2663 52.7699V55.9655L85.0732 56.692V37.0815H94.2663V40.4019H88.3936V44.8635ZM106.614 40.4019H103.169V55.6753C102.048 55.6753 100.928 55.6754 99.8488 55.7167V40.4019H96.404V37.0815H106.614L106.614 40.4019ZM112.009 44.6353H116.554V47.9556H112.009V55.4886H108.751V37.0815H118.027V40.4019H112.009V44.6353ZM123.423 52.5832C125.311 52.6246 127.22 52.7701 129.067 52.8737V56.1526C126.1 55.9657 123.132 55.7792 120.103 55.7167V37.0815H123.423V52.5832ZM131.869 56.3809C132.927 56.4432 134.048 56.5055 135.127 56.6298V37.0815H131.869V56.3809ZM149.674 37.0815L145.461 47.1878L149.674 58.3315C148.429 58.1655 147.184 57.9372 145.939 57.7297L143.552 51.5872L141.124 57.2318C139.921 57.0241 138.759 56.9618 137.555 56.7958L141.83 47.0632L137.97 37.0815H141.539L143.718 42.6638L146.043 37.0815H149.674V37.0815Z" fill="#4C4C4D"/>
</g>
<defs>
<clipPath id="clip0_23_31929">
<rect width="78.625" height="34" fill="white" transform="translate(71.0449 30)"/>
</clipPath>
</defs>
</svg>
