<svg width="220" height="94" viewBox="0 0 220 94" fill="none" xmlns="http://www.w3.org/2000/svg">
<g clip-path="url(#clip0_23_31910)">
<path d="M96.2132 54.6319V44.3221H96.3969L103.901 54.6319H106.263V39.4918H103.639V49.7756H103.455L95.9508 39.4918H93.5892V54.6319H96.2132ZM113.689 54.8656C117.152 54.8656 119.278 52.6323 119.278 48.8927C119.278 45.1791 117.152 42.9197 113.689 42.9197C110.251 42.9197 108.1 45.1791 108.1 48.8927C108.126 52.6323 110.225 54.8656 113.689 54.8656ZM113.689 52.6842C111.852 52.6842 110.802 51.3078 110.802 48.8927C110.802 46.5035 111.852 45.1011 113.689 45.1011C115.526 45.1011 116.575 46.5035 116.575 48.8927C116.575 51.3078 115.526 52.6842 113.689 52.6842ZM121.666 40.3488V43.2314H119.829V45.3089H121.666V51.5675C121.666 53.8009 122.715 54.6838 125.392 54.6838C125.89 54.6838 126.389 54.6319 126.782 54.554V52.5284C126.468 52.5544 126.258 52.5803 125.89 52.5803C124.788 52.5803 124.29 52.0869 124.29 50.9443V45.3089H126.782V43.2314H124.29V40.3488H121.666ZM128.357 54.6319H130.981V43.1534H128.357V54.6319ZM129.669 41.2577C130.535 41.2577 131.243 40.5565 131.243 39.6995C131.243 38.8166 130.535 38.1154 129.669 38.1154C128.803 38.1154 128.094 38.8166 128.094 39.6995C128.094 40.5565 128.803 41.2577 129.669 41.2577ZM138.17 54.8656C141.634 54.8656 143.76 52.6323 143.76 48.8927C143.76 45.1791 141.634 42.9197 138.17 42.9197C134.733 42.9197 132.581 45.1791 132.581 48.8927C132.581 52.6323 134.681 54.8656 138.17 54.8656ZM138.17 52.6842C136.334 52.6842 135.284 51.3078 135.284 48.8927C135.284 46.5035 136.334 45.1011 138.17 45.1011C139.981 45.1011 141.057 46.5035 141.057 48.8927C141.031 51.3078 139.981 52.6842 138.17 52.6842ZM145.308 54.6319H147.932V47.9578C147.932 46.2698 148.929 45.205 150.477 45.205C152.078 45.205 152.812 46.088 152.812 47.8279V54.6319H155.436V47.2047C155.436 44.4519 154.019 42.9197 151.448 42.9197C149.716 42.9197 148.561 43.6988 148.01 44.9973H147.827V43.1534H145.281C145.308 43.1534 145.308 54.6319 145.308 54.6319Z" fill="#4C4C4D"/>
<path fill-rule="evenodd" clip-rule="evenodd" d="M68.4298 38.5227C69.1935 39.1388 69.4698 39.0902 70.8997 38.9929L84.3702 38.1823C84.6627 38.1823 84.419 37.8904 84.3215 37.858L82.0791 36.2529C81.6566 35.9286 81.0717 35.5395 79.983 35.6368L66.9512 36.5933C66.4799 36.642 66.3824 36.8852 66.5774 37.0635L68.4298 38.5227ZM69.2423 41.6519V55.79C69.2423 56.552 69.616 56.8276 70.4772 56.779L85.2802 55.9197C86.1414 55.871 86.2389 55.3522 86.2389 54.7361V40.6953C86.2389 40.0792 85.9952 39.7387 85.4752 39.7874L70.006 40.6953C69.4373 40.744 69.2423 41.0358 69.2423 41.6519ZM83.8503 42.4139C83.9478 42.8355 83.8503 43.2732 83.4278 43.3219L82.7128 43.4678V53.9092C82.0954 54.2335 81.5266 54.428 81.0392 54.428C80.2755 54.428 80.0805 54.1848 79.5117 53.4715L74.8482 46.1592V53.2283L76.3269 53.5525C76.3269 53.5525 76.3269 54.4118 75.1407 54.4118L71.8584 54.6064C71.7609 54.4118 71.8584 53.9416 72.1834 53.8444L73.0446 53.6012V44.2623L71.8584 44.165C71.7609 43.7434 72.0046 43.1273 72.6709 43.0787L76.1969 42.8355L81.0554 50.2288V43.6948L79.8205 43.5489C79.723 43.0301 80.113 42.6409 80.5842 42.5923L83.8503 42.4139ZM65.8625 35.2963L79.4305 34.3073C81.0879 34.1613 81.5266 34.2586 82.5666 35.0207L86.8889 38.0525C87.6038 38.5714 87.8476 38.7173 87.8476 39.2848V55.9359C87.8476 56.9735 87.4738 57.5896 86.1414 57.6869L70.396 58.6435C69.3885 58.6922 68.9173 58.5462 68.3973 57.8815L65.1962 53.7471C64.6275 52.9851 64.3838 52.4176 64.3838 51.7528V36.95C64.3838 36.0907 64.7738 35.3936 65.8625 35.2963Z" fill="#4C4C4D"/>
</g>
<defs>
<clipPath id="clip0_23_31910">
<rect width="91.375" height="34" fill="white" transform="translate(64.3838 30)"/>
</clipPath>
</defs>
</svg>
