<svg width="220" height="94" viewBox="0 0 220 94" fill="none" xmlns="http://www.w3.org/2000/svg">
<g clip-path="url(#clip0_23_31880)">
<path d="M75.2747 32.1808C67.0595 32.1808 60.3994 38.8407 60.3994 47.0559C60.3994 55.2714 67.0595 61.9308 75.2747 61.9308C83.4908 61.9308 90.1501 55.2714 90.1501 47.0559C90.1501 38.8412 83.4908 32.1815 75.2745 32.1815L75.2747 32.1808ZM82.0964 53.6349C81.83 54.0719 81.258 54.2105 80.821 53.9422C77.3285 51.8089 72.9318 51.3257 67.7538 52.5088C67.2549 52.6224 66.7575 52.3098 66.6438 51.8107C66.5296 51.3115 66.841 50.8142 67.3412 50.7005C73.0076 49.4059 77.8681 49.9633 81.7891 52.3596C82.2261 52.6278 82.3646 53.198 82.0964 53.6349ZM83.9171 49.5846C83.5814 50.1303 82.8673 50.3026 82.322 49.9669C78.3235 47.5092 72.2285 46.7974 67.4991 48.233C66.8858 48.4183 66.2379 48.0726 66.0518 47.4603C65.867 46.847 66.2129 46.2004 66.8252 46.0139C72.2274 44.3747 78.9435 45.1687 83.5352 47.9904C84.0805 48.3261 84.2528 49.0402 83.9171 49.5848V49.5846ZM84.0734 45.367C79.2792 42.5194 71.3693 42.2576 66.792 43.6468C66.0569 43.8697 65.2796 43.4548 65.0569 42.7197C64.8341 41.9844 65.2487 41.2076 65.9843 40.9841C71.2388 39.389 79.9737 39.6972 85.4934 42.9739C86.156 43.3663 86.3727 44.2202 85.9801 44.8804C85.5893 45.5416 84.7331 45.7595 84.0741 45.367H84.0734ZM100.87 45.9126C98.3016 45.3002 97.8451 44.8703 97.8451 43.9671C97.8451 43.1137 98.648 42.5395 99.8434 42.5395C101.002 42.5395 102.149 42.9755 103.353 43.8733C103.389 43.9005 103.435 43.9113 103.48 43.9042C103.526 43.8974 103.565 43.8727 103.591 43.8356L104.845 42.0678C104.897 41.995 104.883 41.8947 104.814 41.8391C103.38 40.6893 101.767 40.1303 99.8807 40.1303C97.1079 40.1303 95.17 41.7945 95.17 44.1756C95.17 46.729 96.8415 47.6332 99.7297 48.3311C102.186 48.8972 102.602 49.3715 102.602 50.2191C102.602 51.1588 101.764 51.7432 100.414 51.7432C98.9144 51.7432 97.6905 51.2369 96.3228 50.0539C96.289 50.0237 96.2429 50.0113 96.2002 50.0131C96.154 50.0166 96.1132 50.0379 96.0848 50.0717L94.6779 51.7449C94.6193 51.816 94.6264 51.919 94.6939 51.9794C96.2855 53.4005 98.243 54.1501 100.357 54.1501C103.345 54.1501 105.275 52.5176 105.275 49.99C105.281 47.8572 104.004 46.6759 100.875 45.915L100.87 45.9126ZM112.036 43.3796C110.741 43.3796 109.679 43.8898 108.801 44.9352V43.7585C108.801 43.6656 108.727 43.59 108.634 43.59H106.334C106.242 43.59 106.167 43.6656 106.167 43.7585V56.8323C106.167 56.9246 106.242 57.001 106.334 57.001H108.634C108.727 57.001 108.801 56.9246 108.801 56.8323V52.7059C109.679 53.6882 110.741 54.1696 112.036 54.1696C114.443 54.1696 116.88 52.3169 116.88 48.7752C116.883 45.2327 114.446 43.3795 112.038 43.3795L112.036 43.3796ZM114.205 48.7752C114.205 50.5779 113.095 51.8373 111.503 51.8373C109.931 51.8373 108.744 50.5211 108.744 48.7752C108.744 47.0291 109.931 45.7132 111.503 45.7132C113.068 45.713 114.205 47.0005 114.205 48.775V48.7752ZM123.124 43.3796C120.024 43.3796 117.596 45.7663 117.596 48.8137C117.596 51.8284 120.008 54.1891 123.086 54.1891C126.197 54.1891 128.632 51.8107 128.632 48.7752C128.632 45.7499 126.213 43.38 123.124 43.38V43.3796ZM123.124 51.8551C121.475 51.8551 120.232 50.53 120.232 48.7743C120.232 47.0106 121.433 45.7308 123.086 45.7308C124.745 45.7308 125.996 47.0553 125.996 48.8128C125.996 50.5761 124.788 51.8551 123.124 51.8551ZM135.25 43.59H132.719V41.0026C132.719 40.9099 132.645 40.8342 132.552 40.8342H130.252C130.16 40.8342 130.083 40.9099 130.083 41.0026V43.59H128.978C128.886 43.59 128.811 43.6656 128.811 43.7585V45.735C128.811 45.8277 128.886 45.9036 128.978 45.9036H130.083V51.0184C130.083 53.0843 131.112 54.1323 133.142 54.1323C133.966 54.1323 134.65 53.9618 135.295 53.5959C135.348 53.5674 135.38 53.5106 135.38 53.4502V51.5673C135.38 51.5105 135.35 51.4554 135.3 51.4252C135.25 51.3932 135.188 51.3915 135.137 51.4181C134.694 51.6401 134.266 51.7432 133.787 51.7432C133.05 51.7432 132.719 51.4075 132.719 50.6579V45.9045H135.25C135.343 45.9045 135.417 45.8288 135.417 45.7359V43.7596C135.421 43.6667 135.346 43.591 135.252 43.591L135.25 43.59ZM144.068 43.6001V43.2823C144.068 42.3474 144.427 41.9305 145.23 41.9305C145.709 41.9305 146.095 42.0257 146.526 42.1696C146.58 42.1863 146.635 42.178 146.677 42.1462C146.722 42.1144 146.747 42.0634 146.747 42.0094V40.0715C146.747 39.9974 146.7 39.9318 146.628 39.91C146.173 39.7745 145.59 39.6354 144.716 39.6354C142.594 39.6354 141.469 40.8315 141.469 43.0933V43.58H140.364C140.272 43.58 140.196 43.6557 140.196 43.7484V45.735C140.196 45.8277 140.272 45.9036 140.364 45.9036H141.469V53.7912C141.469 53.8854 141.546 53.96 141.638 53.96H143.937C144.031 53.96 144.105 53.8854 144.105 53.7912V45.9041H146.253L149.543 53.7912C149.17 54.619 148.802 54.7842 148.301 54.7842C147.896 54.7842 147.468 54.6634 147.033 54.4236C146.992 54.4023 146.942 54.3987 146.899 54.4112C146.855 54.4272 146.818 54.4591 146.8 54.5018L146.02 56.2123C145.983 56.2941 146.015 56.3882 146.093 56.4308C146.907 56.8714 147.64 57.0596 148.548 57.0596C150.246 57.0596 151.186 56.2674 152.012 54.1394L156.001 43.8303C156.023 43.7784 156.015 43.7198 155.983 43.6738C155.953 43.6281 155.902 43.6006 155.847 43.6006H153.452C153.379 43.6006 153.315 43.6463 153.292 43.7136L150.839 50.7182L148.153 43.709C148.129 43.6438 148.066 43.6006 147.997 43.6006H144.068V43.6001ZM138.956 43.59H136.655C136.563 43.59 136.487 43.6656 136.487 43.7585V53.7912C136.487 53.8854 136.563 53.96 136.655 53.96H138.956C139.048 53.96 139.125 53.8854 139.125 53.7912V43.7592C139.125 43.6663 139.05 43.5907 138.956 43.5907V43.59ZM137.819 39.0215C136.908 39.0215 136.169 39.759 136.169 40.6701C136.169 41.5817 136.908 42.3201 137.819 42.3201C138.73 42.3201 139.467 41.5817 139.467 40.6701C139.467 39.7592 138.728 39.0215 137.819 39.0215ZM157.966 46.8159C157.056 46.8159 156.348 46.0849 156.348 45.1973C156.348 44.3097 157.065 43.5704 157.975 43.5704C158.884 43.5704 159.593 44.3012 159.593 45.1881C159.593 46.0757 158.875 46.8159 157.966 46.8159ZM157.975 43.7314C157.145 43.7314 156.518 44.3904 156.518 45.1973C156.518 46.004 157.142 46.6541 157.966 46.6541C158.795 46.6541 159.422 45.9956 159.422 45.1881C159.422 44.3815 158.799 43.7314 157.975 43.7314ZM158.333 45.3545L158.792 45.9954H158.405L157.992 45.4075H157.639V45.9954H157.316V44.2966H158.072C158.468 44.2966 158.728 44.4985 158.728 44.8385C158.73 45.117 158.568 45.2872 158.335 45.3545H158.333ZM158.06 44.5881H157.639V45.1254H158.06C158.27 45.1254 158.396 45.0225 158.396 44.8565C158.396 44.6817 158.27 44.5881 158.06 44.5881Z" fill="#4C4C4D"/>
</g>
<defs>
<clipPath id="clip0_23_31880">
<rect width="99.1667" height="34" fill="white" transform="translate(60.3457 30)"/>
</clipPath>
</defs>
</svg>
