<svg width="220" height="94" viewBox="0 0 220 94" fill="none" xmlns="http://www.w3.org/2000/svg">
<g clip-path="url(#clip0_23_31877)">
<path d="M75.6436 55.0715L82.6238 44.2101H76.4705C76.4183 43.8972 76.396 43.5545 76.396 43.1746C76.396 42.8095 76.4183 42.4743 76.4705 42.1689H86.4305L86.5571 42.5041L79.5248 53.3879H86.1176C86.1698 53.7306 86.1921 54.0882 86.1921 54.4457C86.1921 54.7884 86.1698 55.1162 86.1176 55.4291H75.7702L75.6436 55.0715Z" fill="#4C4C4D"/>
<path d="M95.7872 46.6909C95.7872 45.6703 95.5264 44.97 95.0124 44.5678C94.4984 44.1729 93.746 43.9718 92.7627 43.9718C92.1593 43.9718 91.5931 44.0165 91.0716 44.1134C90.5427 44.2102 90.0361 44.3294 89.5296 44.4858C89.2018 43.9197 89.0379 43.2343 89.0379 42.4447C89.6264 42.2584 90.2671 42.1094 90.9748 42.0051C91.6825 41.9008 92.3604 41.8487 93.0159 41.8487C94.7368 41.8487 96.0479 42.2435 96.9493 43.0257C97.8433 43.8079 98.2977 45.0669 98.2977 46.7877V55.0865C97.6943 55.2206 96.9642 55.3696 96.1001 55.5112C95.2359 55.6602 94.3569 55.7272 93.4629 55.7272C92.6211 55.7272 91.8538 55.6527 91.1759 55.4963C90.498 55.3398 89.9169 55.094 89.4402 54.7439C88.9634 54.4012 88.5984 53.9617 88.3376 53.4253C88.0769 52.8889 87.9503 52.2408 87.9503 51.4884C87.9503 50.7509 88.0992 50.0953 88.4047 49.5366C88.7027 48.9779 89.1124 48.5086 89.6339 48.1436C90.1479 47.7711 90.7438 47.4954 91.4217 47.3167C92.0922 47.1379 92.7999 47.041 93.5449 47.041C94.0961 47.041 94.5506 47.0559 94.9007 47.0783C95.2508 47.1006 95.5488 47.1379 95.7946 47.1677V46.6909H95.7872ZM95.7872 49.2014C95.5264 49.1641 95.1987 49.1343 94.8038 49.0971C94.409 49.0599 94.0738 49.045 93.7981 49.045C92.7254 49.045 91.9134 49.2461 91.3547 49.6409C90.796 50.0357 90.5129 50.6392 90.5129 51.4512C90.5129 51.9652 90.6097 52.3749 90.796 52.6654C90.9822 52.956 91.2206 53.1795 91.5037 53.3359C91.7868 53.4923 92.0997 53.5892 92.4498 53.619C92.7925 53.6562 93.1202 53.6711 93.4331 53.6711C93.8279 53.6711 94.2377 53.6488 94.6623 53.6041C95.0869 53.5594 95.4594 53.4998 95.7872 53.4104V49.2014Z" fill="#4C4C4D"/>
<path d="M101.091 42.1694C101.263 42.1322 101.441 42.1098 101.62 42.0949C101.799 42.08 101.985 42.0726 102.179 42.0726C102.35 42.0726 102.529 42.08 102.723 42.0949C102.909 42.1098 103.095 42.1396 103.266 42.1694C103.281 42.2067 103.304 42.311 103.334 42.4898C103.356 42.6686 103.386 42.8622 103.408 43.0708C103.43 43.2794 103.46 43.4731 103.483 43.6668C103.505 43.8605 103.52 43.9797 103.52 44.0318C103.691 43.7562 103.9 43.488 104.138 43.2273C104.376 42.9665 104.667 42.7356 105.002 42.527C105.337 42.3184 105.717 42.1545 106.142 42.0353C106.567 41.9162 107.036 41.8566 107.55 41.8566C108.325 41.8566 109.047 41.9832 109.71 42.2439C110.373 42.5047 110.939 42.8995 111.416 43.4433C111.893 43.9871 112.258 44.6799 112.526 45.5143C112.794 46.3486 112.929 47.3394 112.929 48.4792C112.929 50.7588 112.31 52.5392 111.081 53.8205C109.844 55.1019 108.101 55.75 105.844 55.75C105.464 55.75 105.077 55.7276 104.682 55.6755C104.287 55.6233 103.937 55.5563 103.646 55.4669V61.5457C103.438 61.583 103.222 61.6053 102.983 61.6202C102.752 61.6351 102.536 61.6426 102.35 61.6426C102.164 61.6426 101.948 61.6351 101.717 61.6202C101.486 61.6053 101.27 61.5755 101.084 61.5457V42.1694H101.091ZM103.654 53.2618C103.982 53.381 104.317 53.4704 104.66 53.5226C105.002 53.5747 105.449 53.597 106.008 53.597C106.626 53.597 107.2 53.5002 107.714 53.2991C108.228 53.0979 108.675 52.7925 109.047 52.3828C109.42 51.9656 109.71 51.4441 109.926 50.8184C110.142 50.1926 110.247 49.4402 110.247 48.5835C110.247 47.2053 109.993 46.1102 109.487 45.2982C108.98 44.4862 108.146 44.084 106.991 44.084C106.559 44.084 106.149 44.1585 105.747 44.3149C105.352 44.4713 104.995 44.7023 104.689 45.0152C104.376 45.328 104.131 45.7154 103.937 46.1922C103.743 46.669 103.654 47.2277 103.654 47.8832V53.2618Z" fill="#4C4C4D"/>
<path d="M116.117 44.1803H114.433C114.396 44.0387 114.374 43.8823 114.359 43.7035C114.344 43.5247 114.336 43.3459 114.336 43.1746C114.336 43.0032 114.344 42.8244 114.359 42.6456C114.374 42.4669 114.404 42.303 114.433 42.1689H118.627V55.4365C118.441 55.4738 118.225 55.4961 117.994 55.511C117.763 55.5259 117.547 55.5334 117.361 55.5334C117.19 55.5334 116.989 55.5259 116.75 55.511C116.519 55.4961 116.303 55.4663 116.117 55.4365V44.1803Z" fill="#4C4C4D"/>
<path d="M124.133 49.4325C124.17 50.8777 124.542 51.943 125.257 52.6135C125.973 53.2839 127.03 53.6192 128.424 53.6192C129.645 53.6192 130.815 53.4031 131.917 52.9711C132.059 53.2318 132.171 53.5447 132.253 53.9171C132.342 54.2896 132.387 54.6546 132.409 55.0197C131.843 55.2581 131.217 55.4443 130.532 55.5635C129.854 55.6827 129.094 55.7423 128.267 55.7423C127.06 55.7423 126.025 55.5709 125.161 55.2357C124.297 54.9005 123.589 54.4237 123.03 53.8129C122.471 53.202 122.062 52.4794 121.801 51.6376C121.54 50.8032 121.414 49.8869 121.414 48.8813C121.414 47.8979 121.54 46.9816 121.786 46.1249C122.032 45.2682 122.419 44.5307 122.933 43.8975C123.447 43.2717 124.103 42.7652 124.885 42.4001C125.667 42.0277 126.598 41.8414 127.664 41.8414C128.58 41.8414 129.377 41.9979 130.07 42.3107C130.763 42.6236 131.336 43.0483 131.806 43.5921C132.268 44.1359 132.625 44.784 132.863 45.529C133.102 46.2814 133.229 47.0934 133.229 47.9724C133.229 48.2108 133.221 48.4715 133.199 48.7323C133.184 49.0004 133.161 49.2314 133.147 49.4176H124.133V49.4325ZM130.703 47.518C130.703 47.0338 130.636 46.5719 130.509 46.1324C130.383 45.6928 130.189 45.3129 129.943 44.9851C129.69 44.6574 129.377 44.3966 128.99 44.1955C128.602 43.9943 128.14 43.8975 127.604 43.8975C126.554 43.8975 125.749 44.2178 125.183 44.851C124.624 45.4917 124.282 46.3782 124.162 47.518H130.703Z" fill="#4C4C4D"/>
<path d="M136.059 42.1689C136.246 42.1316 136.432 42.1093 136.603 42.0944C136.775 42.0795 136.953 42.072 137.147 42.072C137.333 42.072 137.527 42.0795 137.713 42.0944C137.899 42.1093 138.078 42.1391 138.227 42.1689C138.279 42.4296 138.332 42.7648 138.384 43.1895C138.436 43.6141 138.458 43.9717 138.458 44.2622C138.823 43.6737 139.3 43.1671 139.896 42.735C140.492 42.303 141.252 42.0869 142.183 42.0869C142.324 42.0869 142.466 42.0944 142.608 42.1018C142.757 42.1093 142.876 42.1242 142.98 42.1391C143.017 42.2955 143.04 42.4594 143.055 42.6307C143.069 42.8021 143.077 42.9809 143.077 43.1746C143.077 43.3832 143.062 43.5992 143.04 43.8227C143.017 44.0462 142.98 44.2622 142.95 44.4708C142.809 44.4335 142.667 44.4186 142.526 44.4186C142.377 44.4186 142.265 44.4186 142.175 44.4186C141.714 44.4186 141.267 44.4857 140.842 44.6123C140.417 44.739 140.037 44.9699 139.702 45.2977C139.367 45.6255 139.099 46.0724 138.898 46.6461C138.697 47.2122 138.6 47.9497 138.6 48.8437V55.4365C138.413 55.4738 138.197 55.4961 137.966 55.511C137.736 55.5259 137.52 55.5334 137.333 55.5334C137.147 55.5334 136.931 55.5259 136.7 55.511C136.469 55.4961 136.246 55.4663 136.037 55.4365V42.1689H136.059Z" fill="#4C4C4D"/>
<path d="M121.063 34.362H118.56L120.333 32.589C120.192 32.3954 120.035 32.2091 119.871 32.0378C119.7 31.8664 119.521 31.71 119.32 31.5759L117.547 33.3489V30.8459C117.316 30.8086 117.078 30.7863 116.832 30.7863H116.825C116.579 30.7863 116.34 30.8086 116.109 30.8459V33.3489L114.336 31.5759C114.143 31.7174 113.956 31.8739 113.785 32.0378C113.614 32.2091 113.465 32.3879 113.323 32.589L115.104 34.362H112.601C112.601 34.362 112.541 34.8314 112.541 35.0772C112.541 35.323 112.563 35.5614 112.601 35.7924H115.104L113.331 37.5653C113.606 37.9527 113.949 38.2954 114.344 38.5785L116.117 36.8055V39.3085C116.348 39.3458 116.586 39.3681 116.832 39.3681H116.839C117.085 39.3681 117.324 39.3458 117.555 39.3085V36.8055L119.328 38.5785C119.521 38.4369 119.707 38.2805 119.879 38.1166C120.05 37.9453 120.207 37.7665 120.341 37.5653L118.568 35.7924H121.071C121.108 35.5614 121.13 35.323 121.13 35.0772V35.0697C121.123 34.8314 121.108 34.593 121.063 34.362ZM117.905 35.0846C117.905 35.405 117.845 35.7104 117.741 35.9935C117.458 36.0978 117.152 36.1574 116.832 36.1574C116.512 36.1574 116.206 36.0978 115.923 35.9935C115.819 35.7104 115.759 35.405 115.759 35.0846V35.0772C115.759 34.7569 115.819 34.4514 115.923 34.1684C116.206 34.0641 116.512 34.0045 116.832 34.0045C117.152 34.0045 117.458 34.0641 117.741 34.1684C117.845 34.4514 117.905 34.7569 117.905 35.0846Z" fill="#4C4C4D"/>
</g>
<defs>
<clipPath id="clip0_23_31877">
<rect width="68" height="34" fill="white" transform="translate(75.6426 30)"/>
</clipPath>
</defs>
</svg>
