<svg width="220" height="94" viewBox="0 0 220 94" fill="none" xmlns="http://www.w3.org/2000/svg">
<g clip-path="url(#clip0_23_31883)">
<path fill-rule="evenodd" clip-rule="evenodd" d="M131.965 44.5915C132.23 45.0488 132.317 45.5691 132.346 46.1541L132.383 46.9337V52.3856L132.422 53.1661C132.499 54.4407 133.439 55.3832 134.723 55.4633L135.499 55.5018V46.9337L135.538 46.1541C135.57 45.5757 135.656 45.0455 135.925 44.585C136.199 44.1125 136.593 43.7206 137.066 43.4484C137.54 43.1763 138.077 43.0335 138.623 43.0345C139.17 43.0355 139.706 43.1802 140.179 43.4541C140.651 43.728 141.044 44.1213 141.316 44.5948C141.581 45.0521 141.664 45.5822 141.696 46.1541L141.734 46.9313V52.3856L141.773 53.1661C141.853 54.4473 142.785 55.3897 144.074 55.4633L144.85 55.5018V46.1541C144.85 44.5012 144.194 42.9159 143.025 41.7469C141.857 40.5778 140.272 39.9207 138.619 39.9201C137.734 39.9192 136.859 40.107 136.053 40.4712C135.247 40.8353 134.528 41.3673 133.943 42.0316C133.359 41.3676 132.64 40.8357 131.833 40.4715C131.027 40.1072 130.153 39.919 129.268 39.9193C127.974 39.9193 126.773 40.312 125.778 40.9902C125.171 40.3128 123.813 39.9193 123.033 39.9193V55.5018L123.813 55.4633C125.117 55.3774 126.059 54.4603 126.11 53.1661L126.152 52.3856V46.9337L126.19 46.1541C126.223 45.5659 126.305 45.0488 126.571 44.5882C126.845 44.1161 127.239 43.7242 127.712 43.4517C128.185 43.1793 128.722 43.0357 129.268 43.0355C129.814 43.0356 130.351 43.1794 130.825 43.4525C131.298 43.7256 131.691 44.1184 131.965 44.5915ZM78.622 55.4642L79.4017 55.5018H91.0884L91.0499 54.7246C90.9444 53.4434 90.0371 52.5075 88.7519 52.4241L87.9722 52.3856H80.961L90.3087 43.0346L90.2703 42.2583C90.2097 40.964 89.264 40.0289 87.9722 39.9577L87.1925 39.9225L75.5059 39.9193L75.5443 40.6989C75.6466 41.9678 76.5669 42.9234 77.8416 42.997L78.622 43.0355H85.6332L76.2855 52.3864L76.324 53.1661C76.4009 54.4505 77.3278 55.3807 78.622 55.4633V55.4642ZM119.974 42.2002C120.698 42.9236 121.272 43.7826 121.663 44.7279C122.055 45.6732 122.257 46.6865 122.257 47.7097C122.257 48.733 122.055 49.7462 121.663 50.6915C121.272 51.6369 120.698 52.4958 119.974 53.2193C118.512 54.68 116.53 55.5006 114.463 55.5006C112.397 55.5006 110.415 54.68 108.953 53.2193C105.91 50.1767 105.91 45.2427 108.953 42.2002C109.676 41.4769 110.534 40.9032 111.479 40.5117C112.423 40.1202 113.436 39.9186 114.458 39.9185C115.483 39.9177 116.497 40.119 117.444 40.5106C118.39 40.9023 119.25 41.4767 119.974 42.201V42.2002ZM117.769 44.4066C118.646 45.2836 119.138 46.4727 119.138 47.7126C119.138 48.9524 118.646 50.1415 117.769 51.0186C116.892 51.8949 115.703 52.3872 114.463 52.3872C113.224 52.3872 112.034 51.8949 111.157 51.0186C110.281 50.1415 109.789 48.9524 109.789 47.7126C109.789 46.4727 110.281 45.2836 111.157 44.4066C112.034 43.5302 113.224 43.038 114.463 43.038C115.703 43.038 116.892 43.5302 117.769 44.4066ZM98.1061 39.9185C99.1288 39.9187 100.141 40.1204 101.086 40.5121C102.031 40.9037 102.889 41.4776 103.612 42.201C106.655 45.2427 106.655 50.1775 103.612 53.2193C102.15 54.68 100.168 55.5006 98.1012 55.5006C96.0345 55.5006 94.0524 54.68 92.5904 53.2193C89.5479 50.1767 89.5479 45.2427 92.5904 42.2002C93.3134 41.4769 94.1717 40.9032 95.1164 40.5117C96.0611 40.1202 97.0737 39.9186 98.0963 39.9185H98.1061ZM101.407 44.405C102.284 45.282 102.776 46.4713 102.776 47.7114C102.776 48.9514 102.284 50.1407 101.407 51.0177C100.53 51.8941 99.341 52.3864 98.1012 52.3864C96.8614 52.3864 95.6722 51.8941 94.7952 51.0177C93.9189 50.1407 93.4266 48.9516 93.4266 47.7118C93.4266 46.4719 93.9189 45.2828 94.7952 44.4058C95.6722 43.5294 96.8614 43.0371 98.1012 43.0371C99.341 43.0371 100.53 43.5294 101.407 44.4058V44.405Z" fill="#4C4C4D"/>
</g>
<defs>
<clipPath id="clip0_23_31883">
<rect width="69.4166" height="34" fill="white" transform="translate(75.5059 30)"/>
</clipPath>
</defs>
</svg>
